# xmcd CD database file
#
# Track frame offsets:
#	150
#	14652
#	28480
#	41905
#	52947
#	64807
#	83197
#	96612
#	108192
#	120035
#	133742
#	148067
#	162092
#	173772
#	185000
#	196647
#
# Disc length: 2765 seconds
#
# Revision: 4
# Processed by: cddbd v1.5.2PL0 Copyright (c) Steve Scherf et al.
# Submitted via: CDex 1.51
#
DISCID=df0acb10
DTITLE=Kenny Rogers - Favourite Hits
DYEAR=2001
DGENRE=Country
TTITLE0=Church Without A Name
TTITLE1=Loser
TTITLE2=A Stranger In My Place
TTITLE3=Always Leaving, Always Gone
TTITLE4=Elvira
TTITLE5=The King Of Oak Street
TTITLE6=Shine On Ruby Mountain
TTITLE7=Me And Bobby McGee
TTITLE8=I Just Want To Give My Love To You
TTITLE9=I'm Gonna Sing You A Sad Song Suzy
TTITLE10=It's Raining In My Mind
TTITLE11=Molly
TTITLE12=Calico Silver
TTITLE13=If Wishes Were Horses
TTITLE14=Girl Get A Hold Of Youself
TTITLE15=Good Time Liberator
EXTD=YEAR: 2001
EXTT0=
EXTT1=
EXTT2=
EXTT3=
EXTT4=
EXTT5=
EXTT6=
EXTT7=
EXTT8=
EXTT9=
EXTT10=
EXTT11=
EXTT12=
EXTT13=
EXTT14=
EXTT15=
PLAYORDER=
